<svg width="28" height="30" viewBox="0 0 28 30" fill="currentColor" xmlns="http://www.w3.org/2000/svg">
    <path d="M24.3444 29.6914C23.6348 29.6914 23.0022 29.5503 22.4465 29.2682C21.8993 28.9775 21.4718 28.5843 21.1641 28.0884C20.8563 27.584 20.7024 27.0155 20.7024 26.3828C20.7024 25.7331 20.8606 25.156 21.1769 24.6516C21.4932 24.1472 21.9207 23.7582 22.4593 23.4846C22.9979 23.211 23.5963 23.0742 24.2546 23.0742C24.8873 23.0742 25.4259 23.2153 25.8705 23.4974C26.3236 23.771 26.6613 24.1472 26.8836 24.6259C27.1058 25.0961 27.217 25.6262 27.217 26.2161C27.217 26.37 27.2084 26.4811 27.1913 26.5495L23.3441 27.0497C23.4467 27.3489 23.6134 27.5669 23.8443 27.7037C24.0751 27.8319 24.3786 27.896 24.7548 27.896C25.3361 27.896 25.9645 27.7464 26.6399 27.4472L26.9605 29.1656C26.1654 29.5161 25.2934 29.6914 24.3444 29.6914ZM25.2293 25.4338C25.0925 24.8952 24.7676 24.6259 24.2546 24.6259C23.9469 24.6259 23.7032 24.7413 23.5237 24.9722C23.3441 25.203 23.2501 25.5022 23.2415 25.8698L25.2293 25.4338Z" />
    <path d="M12.1631 23.2567H14.7823V24.5858C15.2862 23.5781 16.0854 23.0742 17.18 23.0742C18.014 23.0742 18.6655 23.3739 19.1347 23.9734C19.6125 24.5641 19.8514 25.385 19.8514 26.4362V29.694H17.1149V26.1626C17.1149 25.789 17.0323 25.5023 16.8673 25.3025C16.7109 25.1027 16.4894 25.0028 16.2027 25.0028C15.9942 25.0028 15.79 25.0723 15.5902 25.2113C15.3904 25.3416 15.2254 25.5327 15.0951 25.7847C14.9734 26.0366 14.9126 26.3233 14.9126 26.6447V29.694H12.1631V23.2567Z" />
    <path d="M9.60892 29.6912C8.88092 29.6912 8.31326 29.4572 7.90592 28.9892C7.49859 28.5212 7.29492 27.8842 7.29492 27.0782V23.0742H10.0509V26.9612C10.0509 27.1606 10.1029 27.3166 10.2069 27.4292C10.3196 27.5332 10.4626 27.5852 10.6359 27.5852C10.8093 27.5852 10.9869 27.5332 11.1689 27.4292L11.3119 29.2362C11.1213 29.3836 10.8699 29.4962 10.5579 29.5742C10.2546 29.6522 9.93825 29.6912 9.60892 29.6912Z" />
    <path d="M15.0015 2.50684H17.6444V3.84804C17.9425 3.33084 18.2799 2.94952 18.6569 2.70407C19.0426 2.44986 19.4984 2.32275 20.0244 2.32275C20.5416 2.32275 20.9886 2.45424 21.3656 2.71722C21.7513 2.97144 22.0406 3.31769 22.2334 3.75599C22.7944 2.8005 23.6097 2.32275 24.6791 2.32275C25.1875 2.32275 25.6302 2.45863 26.0072 2.73037C26.3929 3.00212 26.6909 3.39659 26.9013 3.91378C27.1117 4.42221 27.2169 5.02268 27.2169 5.71519V9.00244H24.4424V5.71519C24.4424 5.26813 24.3635 4.93064 24.2058 4.70272C24.0567 4.4748 23.8463 4.36085 23.5746 4.36085C23.2766 4.36085 23.018 4.48795 22.7988 4.74217C22.5884 4.99638 22.4832 5.30319 22.4832 5.6626V9.00244H19.7351V5.71519C19.7351 5.26813 19.6562 4.93064 19.4984 4.70272C19.3494 4.4748 19.1346 4.36085 18.8541 4.36085C18.5561 4.36085 18.3019 4.48795 18.0915 4.74217C17.8811 4.99638 17.7759 5.30319 17.7759 5.6626V9.00244H15.0015V2.50684Z" />
    <path d="M9.22393 9.104C8.67134 9.104 8.15275 8.95947 7.66817 8.67043C7.19209 8.37288 6.80953 7.97331 6.52048 7.47173C6.23144 6.96165 6.08691 6.39631 6.08691 5.7757C6.08691 5.1636 6.23144 4.61102 6.52048 4.11794C6.80953 3.61635 7.19634 3.22529 7.68092 2.94474C8.1655 2.6642 8.67984 2.52393 9.22393 2.52393C9.666 2.52393 10.0741 2.6472 10.4481 2.89374C10.8307 3.14028 11.1197 3.51009 11.3153 4.00317V2.52393H13.9932V9.00198H11.3153V7.81604C10.8902 8.67468 10.1931 9.104 9.22393 9.104ZM10.0528 7.08917C10.3929 7.08917 10.6819 6.97015 10.92 6.73211C11.1665 6.48557 11.2983 6.19652 11.3153 5.86497V5.76295C11.2983 5.4229 11.1622 5.13385 10.9072 4.89581C10.6607 4.65777 10.3759 4.53875 10.0528 4.53875C9.69575 4.53875 9.3897 4.66627 9.13466 4.92132C8.88812 5.16786 8.76485 5.4654 8.76485 5.81396C8.76485 6.17102 8.89237 6.47282 9.14741 6.71936C9.40245 6.9659 9.70425 7.08917 10.0528 7.08917Z" />
    <path d="M0 0.0561523H3.003V9.00015H0V0.0561523Z" />
    <path fill-rule="evenodd" clip-rule="evenodd" d="M7.27412 9.99023H0V29.6938H6.33553V22.1904H7.56743C7.85347 22.1904 8.14855 22.1942 8.44815 22.1981C9.93041 22.217 11.5232 22.2374 12.6781 21.8086C14.086 21.274 14.7145 20.9017 15.5162 19.928C16.3374 18.9542 16.7481 17.8182 16.7481 16.5199C16.7481 14.4579 15.917 12.8541 14.2549 11.7086C12.6124 10.563 10.2855 9.99023 7.27412 9.99023ZM8.64032 20.8748C8.18661 20.8748 7.80048 20.7348 7.48192 20.4549C7.17301 20.1653 7.01855 19.8129 7.01855 19.3978C7.01855 18.9827 7.18266 18.6352 7.51087 18.3553C7.83909 18.0753 8.21557 17.9354 8.64032 17.9354C9.08437 17.9354 9.46568 18.0802 9.78424 18.3698C10.1125 18.6594 10.2766 19.002 10.2766 19.3978C10.2766 19.8226 10.1125 20.1749 9.78424 20.4549C9.45603 20.7348 9.07472 20.8748 8.64032 20.8748Z" />
</svg>